<?xml version="1.0" encoding="UTF-8"?>
<svg xmlns="http://www.w3.org/2000/svg" width="1200" height="3000" viewBox="0 0 1200 3000">
<rect width="100%" height="100%" fill="#F8FAFB"/>
<image href="images/IMG-0626.svg" x="0" y="0" width="240" height="150" preserveAspectRatio="xMidYMid meet"/>
<image href="images/IMG-0627.svg" x="240" y="0" width="240" height="150" preserveAspectRatio="xMidYMid meet"/>
<image href="images/IMG-0628.svg" x="480" y="0" width="240" height="150" preserveAspectRatio="xMidYMid meet"/>
<image href="images/IMG-0629.svg" x="720" y="0" width="240" height="150" preserveAspectRatio="xMidYMid meet"/>
<image href="images/IMG-0630.svg" x="960" y="0" width="240" height="150" preserveAspectRatio="xMidYMid meet"/>
<image href="images/IMG-5626.svg" x="0" y="150" width="240" height="150" preserveAspectRatio="xMidYMid meet"/>
<image href="images/IMG-5627.svg" x="240" y="150" width="240" height="150" preserveAspectRatio="xMidYMid meet"/>
<image href="images/IMG-5628.svg" x="480" y="150" width="240" height="150" preserveAspectRatio="xMidYMid meet"/>
<image href="images/IMG-5629.svg" x="720" y="150" width="240" height="150" preserveAspectRatio="xMidYMid meet"/>
<image href="images/IMG-5630.svg" x="960" y="150" width="240" height="150" preserveAspectRatio="xMidYMid meet"/>
<image href="images/IMG-8751.svg" x="0" y="300" width="240" height="150" preserveAspectRatio="xMidYMid meet"/>
<image href="images/IMG-8752.svg" x="240" y="300" width="240" height="150" preserveAspectRatio="xMidYMid meet"/>
<image href="images/IMG-8753.svg" x="480" y="300" width="240" height="150" preserveAspectRatio="xMidYMid meet"/>
<image href="images/IMG-8754.svg" x="720" y="300" width="240" height="150" preserveAspectRatio="xMidYMid meet"/>
<image href="images/IMG-8755.svg" x="960" y="300" width="240" height="150" preserveAspectRatio="xMidYMid meet"/>
<image href="images/IMG-8126.svg" x="0" y="450" width="240" height="150" preserveAspectRatio="xMidYMid meet"/>
<image href="images/IMG-8127.svg" x="240" y="450" width="240" height="150" preserveAspectRatio="xMidYMid meet"/>
<image href="images/IMG-8128.svg" x="480" y="450" width="240" height="150" preserveAspectRatio="xMidYMid meet"/>
<image href="images/IMG-8129.svg" x="720" y="450" width="240" height="150" preserveAspectRatio="xMidYMid meet"/>
<image href="images/IMG-8130.svg" x="960" y="450" width="240" height="150" preserveAspectRatio="xMidYMid meet"/>
<image href="images/IMG-0001.svg" x="0" y="600" width="240" height="150" preserveAspectRatio="xMidYMid meet"/>
<image href="images/IMG-0002.svg" x="240" y="600" width="240" height="150" preserveAspectRatio="xMidYMid meet"/>
<image href="images/IMG-0003.svg" x="480" y="600" width="240" height="150" preserveAspectRatio="xMidYMid meet"/>
<image href="images/IMG-0004.svg" x="720" y="600" width="240" height="150" preserveAspectRatio="xMidYMid meet"/>
<image href="images/IMG-0005.svg" x="960" y="600" width="240" height="150" preserveAspectRatio="xMidYMid meet"/>
<image href="images/IMG-6876.svg" x="0" y="750" width="240" height="150" preserveAspectRatio="xMidYMid meet"/>
<image href="images/IMG-6877.svg" x="240" y="750" width="240" height="150" preserveAspectRatio="xMidYMid meet"/>
<image href="images/IMG-6878.svg" x="480" y="750" width="240" height="150" preserveAspectRatio="xMidYMid meet"/>
<image href="images/IMG-6879.svg" x="720" y="750" width="240" height="150" preserveAspectRatio="xMidYMid meet"/>
<image href="images/IMG-6880.svg" x="960" y="750" width="240" height="150" preserveAspectRatio="xMidYMid meet"/>
<image href="images/IMG-2501.svg" x="0" y="900" width="240" height="150" preserveAspectRatio="xMidYMid meet"/>
<image href="images/IMG-2502.svg" x="240" y="900" width="240" height="150" preserveAspectRatio="xMidYMid meet"/>
<image href="images/IMG-2503.svg" x="480" y="900" width="240" height="150" preserveAspectRatio="xMidYMid meet"/>
<image href="images/IMG-2504.svg" x="720" y="900" width="240" height="150" preserveAspectRatio="xMidYMid meet"/>
<image href="images/IMG-2505.svg" x="960" y="900" width="240" height="150" preserveAspectRatio="xMidYMid meet"/>
<image href="images/IMG-10626.svg" x="0" y="1050" width="240" height="150" preserveAspectRatio="xMidYMid meet"/>
<image href="images/IMG-10627.svg" x="240" y="1050" width="240" height="150" preserveAspectRatio="xMidYMid meet"/>
<image href="images/IMG-10628.svg" x="480" y="1050" width="240" height="150" preserveAspectRatio="xMidYMid meet"/>
<image href="images/IMG-10629.svg" x="720" y="1050" width="240" height="150" preserveAspectRatio="xMidYMid meet"/>
<image href="images/IMG-10630.svg" x="960" y="1050" width="240" height="150" preserveAspectRatio="xMidYMid meet"/>
<image href="images/IMG-9376.svg" x="0" y="1200" width="240" height="150" preserveAspectRatio="xMidYMid meet"/>
<image href="images/IMG-9377.svg" x="240" y="1200" width="240" height="150" preserveAspectRatio="xMidYMid meet"/>
<image href="images/IMG-9378.svg" x="480" y="1200" width="240" height="150" preserveAspectRatio="xMidYMid meet"/>
<image href="images/IMG-9379.svg" x="720" y="1200" width="240" height="150" preserveAspectRatio="xMidYMid meet"/>
<image href="images/IMG-9380.svg" x="960" y="1200" width="240" height="150" preserveAspectRatio="xMidYMid meet"/>
<image href="images/IMG-1251.svg" x="0" y="1350" width="240" height="150" preserveAspectRatio="xMidYMid meet"/>
<image href="images/IMG-1252.svg" x="240" y="1350" width="240" height="150" preserveAspectRatio="xMidYMid meet"/>
<image href="images/IMG-1253.svg" x="480" y="1350" width="240" height="150" preserveAspectRatio="xMidYMid meet"/>
<image href="images/IMG-1254.svg" x="720" y="1350" width="240" height="150" preserveAspectRatio="xMidYMid meet"/>
<image href="images/IMG-1255.svg" x="960" y="1350" width="240" height="150" preserveAspectRatio="xMidYMid meet"/>
<image href="images/IMG-10001.svg" x="0" y="1500" width="240" height="150" preserveAspectRatio="xMidYMid meet"/>
<image href="images/IMG-10002.svg" x="240" y="1500" width="240" height="150" preserveAspectRatio="xMidYMid meet"/>
<image href="images/IMG-10003.svg" x="480" y="1500" width="240" height="150" preserveAspectRatio="xMidYMid meet"/>
<image href="images/IMG-10004.svg" x="720" y="1500" width="240" height="150" preserveAspectRatio="xMidYMid meet"/>
<image href="images/IMG-10005.svg" x="960" y="1500" width="240" height="150" preserveAspectRatio="xMidYMid meet"/>
<image href="images/IMG-5001.svg" x="0" y="1650" width="240" height="150" preserveAspectRatio="xMidYMid meet"/>
<image href="images/IMG-5002.svg" x="240" y="1650" width="240" height="150" preserveAspectRatio="xMidYMid meet"/>
<image href="images/IMG-5003.svg" x="480" y="1650" width="240" height="150" preserveAspectRatio="xMidYMid meet"/>
<image href="images/IMG-5004.svg" x="720" y="1650" width="240" height="150" preserveAspectRatio="xMidYMid meet"/>
<image href="images/IMG-5005.svg" x="960" y="1650" width="240" height="150" preserveAspectRatio="xMidYMid meet"/>
<image href="images/IMG-3751.svg" x="0" y="1800" width="240" height="150" preserveAspectRatio="xMidYMid meet"/>
<image href="images/IMG-3752.svg" x="240" y="1800" width="240" height="150" preserveAspectRatio="xMidYMid meet"/>
<image href="images/IMG-3753.svg" x="480" y="1800" width="240" height="150" preserveAspectRatio="xMidYMid meet"/>
<image href="images/IMG-3754.svg" x="720" y="1800" width="240" height="150" preserveAspectRatio="xMidYMid meet"/>
<image href="images/IMG-3755.svg" x="960" y="1800" width="240" height="150" preserveAspectRatio="xMidYMid meet"/>
<image href="images/IMG-11251.svg" x="0" y="1950" width="240" height="150" preserveAspectRatio="xMidYMid meet"/>
<image href="images/IMG-11252.svg" x="240" y="1950" width="240" height="150" preserveAspectRatio="xMidYMid meet"/>
<image href="images/IMG-11253.svg" x="480" y="1950" width="240" height="150" preserveAspectRatio="xMidYMid meet"/>
<image href="images/IMG-11254.svg" x="720" y="1950" width="240" height="150" preserveAspectRatio="xMidYMid meet"/>
<image href="images/IMG-11255.svg" x="960" y="1950" width="240" height="150" preserveAspectRatio="xMidYMid meet"/>
<image href="images/IMG-6251.svg" x="0" y="2100" width="240" height="150" preserveAspectRatio="xMidYMid meet"/>
<image href="images/IMG-6252.svg" x="240" y="2100" width="240" height="150" preserveAspectRatio="xMidYMid meet"/>
<image href="images/IMG-6253.svg" x="480" y="2100" width="240" height="150" preserveAspectRatio="xMidYMid meet"/>
<image href="images/IMG-6254.svg" x="720" y="2100" width="240" height="150" preserveAspectRatio="xMidYMid meet"/>
<image href="images/IMG-6255.svg" x="960" y="2100" width="240" height="150" preserveAspectRatio="xMidYMid meet"/>
<image href="images/IMG-11876.svg" x="0" y="2250" width="240" height="150" preserveAspectRatio="xMidYMid meet"/>
<image href="images/IMG-11877.svg" x="240" y="2250" width="240" height="150" preserveAspectRatio="xMidYMid meet"/>
<image href="images/IMG-11878.svg" x="480" y="2250" width="240" height="150" preserveAspectRatio="xMidYMid meet"/>
<image href="images/IMG-11879.svg" x="720" y="2250" width="240" height="150" preserveAspectRatio="xMidYMid meet"/>
<image href="images/IMG-11880.svg" x="960" y="2250" width="240" height="150" preserveAspectRatio="xMidYMid meet"/>
<image href="images/IMG-7501.svg" x="0" y="2400" width="240" height="150" preserveAspectRatio="xMidYMid meet"/>
<image href="images/IMG-7502.svg" x="240" y="2400" width="240" height="150" preserveAspectRatio="xMidYMid meet"/>
<image href="images/IMG-7503.svg" x="480" y="2400" width="240" height="150" preserveAspectRatio="xMidYMid meet"/>
<image href="images/IMG-7504.svg" x="720" y="2400" width="240" height="150" preserveAspectRatio="xMidYMid meet"/>
<image href="images/IMG-7505.svg" x="960" y="2400" width="240" height="150" preserveAspectRatio="xMidYMid meet"/>
<image href="images/IMG-3126.svg" x="0" y="2550" width="240" height="150" preserveAspectRatio="xMidYMid meet"/>
<image href="images/IMG-3127.svg" x="240" y="2550" width="240" height="150" preserveAspectRatio="xMidYMid meet"/>
<image href="images/IMG-3128.svg" x="480" y="2550" width="240" height="150" preserveAspectRatio="xMidYMid meet"/>
<image href="images/IMG-3129.svg" x="720" y="2550" width="240" height="150" preserveAspectRatio="xMidYMid meet"/>
<image href="images/IMG-3130.svg" x="960" y="2550" width="240" height="150" preserveAspectRatio="xMidYMid meet"/>
<image href="images/IMG-4376.svg" x="0" y="2700" width="240" height="150" preserveAspectRatio="xMidYMid meet"/>
<image href="images/IMG-4377.svg" x="240" y="2700" width="240" height="150" preserveAspectRatio="xMidYMid meet"/>
<image href="images/IMG-4378.svg" x="480" y="2700" width="240" height="150" preserveAspectRatio="xMidYMid meet"/>
<image href="images/IMG-4379.svg" x="720" y="2700" width="240" height="150" preserveAspectRatio="xMidYMid meet"/>
<image href="images/IMG-4380.svg" x="960" y="2700" width="240" height="150" preserveAspectRatio="xMidYMid meet"/>
<image href="images/IMG-1876.svg" x="0" y="2850" width="240" height="150" preserveAspectRatio="xMidYMid meet"/>
<image href="images/IMG-1877.svg" x="240" y="2850" width="240" height="150" preserveAspectRatio="xMidYMid meet"/>
<image href="images/IMG-1878.svg" x="480" y="2850" width="240" height="150" preserveAspectRatio="xMidYMid meet"/>
<image href="images/IMG-1879.svg" x="720" y="2850" width="240" height="150" preserveAspectRatio="xMidYMid meet"/>
<image href="images/IMG-1880.svg" x="960" y="2850" width="240" height="150" preserveAspectRatio="xMidYMid meet"/>
</svg>
