<?xml version="1.0" encoding="UTF-8"?>
<svg xmlns="http://www.w3.org/2000/svg" width="1200" height="600" viewBox="0 0 1200 600">
<rect width="100%" height="100%" fill="#F8FAFB"/>
<image href="images/IMG-0001.svg" x="0" y="0" width="240" height="150" preserveAspectRatio="xMidYMid meet"/>
<image href="images/IMG-0626.svg" x="240" y="0" width="240" height="150" preserveAspectRatio="xMidYMid meet"/>
<image href="images/IMG-1251.svg" x="480" y="0" width="240" height="150" preserveAspectRatio="xMidYMid meet"/>
<image href="images/IMG-1876.svg" x="720" y="0" width="240" height="150" preserveAspectRatio="xMidYMid meet"/>
<image href="images/IMG-2501.svg" x="960" y="0" width="240" height="150" preserveAspectRatio="xMidYMid meet"/>
<image href="images/IMG-3126.svg" x="0" y="150" width="240" height="150" preserveAspectRatio="xMidYMid meet"/>
<image href="images/IMG-3751.svg" x="240" y="150" width="240" height="150" preserveAspectRatio="xMidYMid meet"/>
<image href="images/IMG-4376.svg" x="480" y="150" width="240" height="150" preserveAspectRatio="xMidYMid meet"/>
<image href="images/IMG-5001.svg" x="720" y="150" width="240" height="150" preserveAspectRatio="xMidYMid meet"/>
<image href="images/IMG-5626.svg" x="960" y="150" width="240" height="150" preserveAspectRatio="xMidYMid meet"/>
<image href="images/IMG-6251.svg" x="0" y="300" width="240" height="150" preserveAspectRatio="xMidYMid meet"/>
<image href="images/IMG-6876.svg" x="240" y="300" width="240" height="150" preserveAspectRatio="xMidYMid meet"/>
<image href="images/IMG-7501.svg" x="480" y="300" width="240" height="150" preserveAspectRatio="xMidYMid meet"/>
<image href="images/IMG-8126.svg" x="720" y="300" width="240" height="150" preserveAspectRatio="xMidYMid meet"/>
<image href="images/IMG-8751.svg" x="960" y="300" width="240" height="150" preserveAspectRatio="xMidYMid meet"/>
<image href="images/IMG-9376.svg" x="0" y="450" width="240" height="150" preserveAspectRatio="xMidYMid meet"/>
<image href="images/IMG-10001.svg" x="240" y="450" width="240" height="150" preserveAspectRatio="xMidYMid meet"/>
<image href="images/IMG-10626.svg" x="480" y="450" width="240" height="150" preserveAspectRatio="xMidYMid meet"/>
<image href="images/IMG-11251.svg" x="720" y="450" width="240" height="150" preserveAspectRatio="xMidYMid meet"/>
<image href="images/IMG-11876.svg" x="960" y="450" width="240" height="150" preserveAspectRatio="xMidYMid meet"/>
</svg>
