<?xml version="1.0" encoding="UTF-8"?>
<svg xmlns="http://www.w3.org/2000/svg" width="960" height="600" viewBox="0 0 960 600" role="img" aria-labelledby="title desc">
<!-- LaTeX/TikZ source: latex_sources/IMG-9645.tex -->
<defs>
<marker id="arrow" markerWidth="10" markerHeight="10" refX="7" refY="3" orient="auto" markerUnits="strokeWidth">
<path d="M0,0 L0,6 L8,3 z" fill="#174A5B"/>
</marker>
<style>
.wire{stroke:#174A5B;stroke-width:4;fill:none;stroke-linecap:round;stroke-linejoin:round}
.thin{stroke:#44606B;stroke-width:2.4;fill:none;stroke-linecap:round;stroke-linejoin:round}
.accent{stroke:#D97706;stroke-width:4;fill:none;stroke-linecap:round;stroke-linejoin:round}
.accentFill{fill:#FDECC8;stroke:#D97706;stroke-width:3}
.box{fill:#EAF4F4;stroke:#246B7A;stroke-width:3}
.panel{fill:#FFFFFF;stroke:#D9E2E7;stroke-width:1.5}
.soft{fill:#F1F7F8;stroke:#7AA8B2;stroke-width:2}
.label{font-family:Inter,Arial,sans-serif;font-size:16px;fill:#1F2933}
.small{font-family:Inter,Arial,sans-serif;font-size:13px;fill:#52616B}
.tiny{font-family:Inter,Arial,sans-serif;font-size:11px;fill:#52616B}
.math{font-family:Inter,Arial,sans-serif;font-size:15px;fill:#1F2933}
</style>
</defs>
<title id="title">Wheatstone bridge balance problem diagram</title>
<desc id="desc">A Wheatstone bridge balances with R1 = 200 ohm, R2 = 300 ohm, and R3 = 250 ohm. If R1/R2 = R3/Rx, what is Rx?</desc>
<rect x="0" y="0" width="960" height="600" fill="#F8FAFB"/>
<rect x="24" y="22" width="912" height="72" rx="10" fill="#174A5B"/>
<text x="48" y="56" font-family="Inter,Arial,sans-serif" font-size="22" font-weight="700" fill="#FFFFFF">Wheatstone bridge balance problem diagram</text>
<text x="48" y="80" font-family="Inter,Arial,sans-serif" font-size="13" fill="#D6EEF2">IMG-9645 | Measurement and Instrumentation | EE-192885</text>
<circle class="accentFill" cx="480" cy="165" r="5" fill="none"/>
<circle class="accentFill" cx="480" cy="440" r="5" fill="none"/>
<circle class="accentFill" cx="255" cy="300" r="5" fill="none"/>
<circle class="accentFill" cx="705" cy="300" r="5" fill="none"/>
<path class="wire" d="M480,165 L390,215 M340,245 L255,300 M255,300 L340,355 M390,385 L480,440" fill="none"/>
<path class="wire" d="M480,165 L570,215 M620,245 L705,300 M705,300 L620,355 M570,385 L480,440" fill="none"/>
<rect class="soft" x="340" y="205" width="50" height="50" rx="2"/>
<rect class="soft" x="340" y="345" width="50" height="50" rx="2"/>
<rect class="soft" x="570" y="205" width="50" height="50" rx="2"/>
<rect class="soft" x="570" y="345" width="50" height="50" rx="2"/>
<text class="small" x="365" y="238" text-anchor="middle">R1</text>
<text class="small" x="365" y="378" text-anchor="middle">R2</text>
<text class="small" x="595" y="238" text-anchor="middle">R3</text>
<text class="small" x="595" y="378" text-anchor="middle">Rx</text>
<line class="wire" x1="260" y1="300" x2="422" y2="300"/>
<circle class="thin" cx="480" cy="300" r="58" fill="none"/>
<text class="label" x="480" y="311" text-anchor="middle">G</text>
<line class="wire" x1="538" y1="300" x2="700" y2="300"/>
<text class="small" x="480" y="132" text-anchor="middle">excitation +</text>
<text class="small" x="480" y="474" text-anchor="middle">excitation -</text>
<rect class="panel" x="24" y="500" width="912" height="74" rx="10"/>
<text x="48" y="528" font-family="Inter,Arial,sans-serif" font-size="15" fill="#1F2933">A Wheatstone bridge balances with R1 = 200 ohm, R2 = 300 ohm, and R3 = 250 ohm. If R1/R2 = R3/Rx, what is Rx?</text>
</svg>
