<?xml version="1.0" encoding="UTF-8"?>
<svg xmlns="http://www.w3.org/2000/svg" width="960" height="600" viewBox="0 0 960 600" role="img" aria-labelledby="title desc">
<!-- LaTeX/TikZ source: latex_sources/IMG-2286.tex -->
<defs>
<marker id="arrow" markerWidth="10" markerHeight="10" refX="7" refY="3" orient="auto" markerUnits="strokeWidth">
<path d="M0,0 L0,6 L8,3 z" fill="#174A5B"/>
</marker>
<style>
.wire{stroke:#174A5B;stroke-width:4;fill:none;stroke-linecap:round;stroke-linejoin:round}
.thin{stroke:#44606B;stroke-width:2.4;fill:none;stroke-linecap:round;stroke-linejoin:round}
.accent{stroke:#D97706;stroke-width:4;fill:none;stroke-linecap:round;stroke-linejoin:round}
.accentFill{fill:#FDECC8;stroke:#D97706;stroke-width:3}
.box{fill:#EAF4F4;stroke:#246B7A;stroke-width:3}
.panel{fill:#FFFFFF;stroke:#D9E2E7;stroke-width:1.5}
.soft{fill:#F1F7F8;stroke:#7AA8B2;stroke-width:2}
.label{font-family:Inter,Arial,sans-serif;font-size:16px;fill:#1F2933}
.small{font-family:Inter,Arial,sans-serif;font-size:13px;fill:#52616B}
.tiny{font-family:Inter,Arial,sans-serif;font-size:11px;fill:#52616B}
.math{font-family:Inter,Arial,sans-serif;font-size:15px;fill:#1F2933}
</style>
</defs>
<title id="title">RC time constant problem diagram</title>
<desc id="desc">An RC circuit has R = 11 kohm and C = 10 uF. What is the time constant?</desc>
<rect x="0" y="0" width="960" height="600" fill="#F8FAFB"/>
<rect x="24" y="22" width="912" height="72" rx="10" fill="#174A5B"/>
<text x="48" y="56" font-family="Inter,Arial,sans-serif" font-size="22" font-weight="700" fill="#FFFFFF">RC time constant problem diagram</text>
<text x="48" y="80" font-family="Inter,Arial,sans-serif" font-size="13" fill="#D6EEF2">IMG-2286 | Transient Circuit Analysis | EE-45701</text>
<circle class="thin" cx="145" cy="330" r="32" fill="none"/>
<text class="tiny" x="138" y="320" text-anchor="start">+</text>
<text class="tiny" x="138" y="346" text-anchor="start">-</text>
<text class="small" x="96" y="334" text-anchor="start">Vs</text>
<path class="wire" d="M145,298 V245 H250" fill="none"/>
<line class="wire" x1="250" y1="245" x2="290" y2="220"/>
<line class="wire" x1="307" y1="245" x2="340" y2="245"/>
<polyline class="wire" points="340,245 362,245 362,245 368.75,233 375.5,257 382.25,233 389,257 395.75,233 402.5,257 409.25,233 416,257 422.75,233 429.5,257 436.25,233 443,245 465,245" fill="none"/>
<path class="wire" d="M465,245 H510 V300" fill="none"/>
<line class="wire" x1="485" y1="300" x2="535" y2="300"/>
<line class="wire" x1="485" y1="320" x2="535" y2="320"/>
<path class="wire" d="M510,320 V410 H145 V362" fill="none"/>
<text class="small" x="402" y="218" text-anchor="start">R</text>
<text class="small" x="545" y="316" text-anchor="start">C</text>
<text class="tiny" x="270" y="208" text-anchor="start">switch closes</text>
<line class="thin" x1="610" y1="410" x2="860" y2="410" marker-end="url(#arrow)"/>
<line class="thin" x1="630" y1="430" x2="630" y2="210" marker-end="url(#arrow)"/>
<polyline class="accent" points="630,410 632.625,402.328 635.25,395.049 637.875,388.142 640.5,381.588 643.125,375.369 645.75,369.468 648.375,363.869 651,358.557 653.625,353.516 656.25,348.733 658.875,344.195 661.5,339.889 664.125,335.803 666.75,331.926 669.375,328.247 672,324.757 674.625,321.445 677.25,318.302 679.875,315.32 682.5,312.491 685.125,309.806 687.75,307.259 690.375,304.842 693,302.548 695.625,300.372 698.25,298.307 700.875,296.348 703.5,294.489 706.125,292.725 708.75,291.051 711.375,289.463 714,287.956 716.625,286.526 719.25,285.17 721.875,283.882 724.5,282.661 727.125,281.502 729.75,280.402 732.375,279.359 735,278.368 737.625,277.429 740.25,276.538 742.875,275.692 745.5,274.889 748.125,274.128 750.75,273.405 753.375,272.719 756,272.069 758.625,271.452 761.25,270.866 763.875,270.31 766.5,269.783 769.125,269.283 771.75,268.808 774.375,268.357 777,267.93 779.625,267.524 782.25,267.139 784.875,266.774 787.5,266.428 790.125,266.099 792.75,265.787 795.375,265.491 798,265.21 800.625,264.944 803.25,264.691 805.875,264.451 808.5,264.223 811.125,264.007 813.75,263.802 816.375,263.608 819,263.423 821.625,263.248 824.25,263.082 826.875,262.925 829.5,262.775 832.125,262.633 834.75,262.498 837.375,262.371 840,262.249" fill="none"/>
<text class="tiny" x="846" y="432" text-anchor="start">t</text>
<text class="tiny" x="606" y="210" text-anchor="start">vC</text>
<text class="small" x="744" y="236" text-anchor="start">charging</text>
<rect class="panel" x="24" y="500" width="912" height="74" rx="10"/>
<text x="48" y="528" font-family="Inter,Arial,sans-serif" font-size="15" fill="#1F2933">An RC circuit has R = 11 kohm and C = 10 uF. What is the time constant?</text>
</svg>
