<?xml version="1.0" encoding="UTF-8"?>
<svg xmlns="http://www.w3.org/2000/svg" width="960" height="600" viewBox="0 0 960 600" role="img" aria-labelledby="title desc">
<!-- LaTeX/TikZ source: latex_sources/IMG-1163.tex -->
<defs>
<marker id="arrow" markerWidth="10" markerHeight="10" refX="7" refY="3" orient="auto" markerUnits="strokeWidth">
<path d="M0,0 L0,6 L8,3 z" fill="#174A5B"/>
</marker>
<style>
.wire{stroke:#174A5B;stroke-width:4;fill:none;stroke-linecap:round;stroke-linejoin:round}
.thin{stroke:#44606B;stroke-width:2.4;fill:none;stroke-linecap:round;stroke-linejoin:round}
.accent{stroke:#D97706;stroke-width:4;fill:none;stroke-linecap:round;stroke-linejoin:round}
.accentFill{fill:#FDECC8;stroke:#D97706;stroke-width:3}
.box{fill:#EAF4F4;stroke:#246B7A;stroke-width:3}
.panel{fill:#FFFFFF;stroke:#D9E2E7;stroke-width:1.5}
.soft{fill:#F1F7F8;stroke:#7AA8B2;stroke-width:2}
.label{font-family:Inter,Arial,sans-serif;font-size:16px;fill:#1F2933}
.small{font-family:Inter,Arial,sans-serif;font-size:13px;fill:#52616B}
.tiny{font-family:Inter,Arial,sans-serif;font-size:11px;fill:#52616B}
.math{font-family:Inter,Arial,sans-serif;font-size:15px;fill:#1F2933}
</style>
</defs>
<title id="title">Sinusoid to RMS phasor reference diagram</title>
<desc id="desc">A voltage is v(t) = 42 V cos(omega t + 30 deg). What is the RMS phasor magnitude?</desc>
<rect x="0" y="0" width="960" height="600" fill="#F8FAFB"/>
<rect x="24" y="22" width="912" height="72" rx="10" fill="#174A5B"/>
<text x="48" y="56" font-family="Inter,Arial,sans-serif" font-size="22" font-weight="700" fill="#FFFFFF">Sinusoid to RMS phasor reference diagram</text>
<text x="48" y="80" font-family="Inter,Arial,sans-serif" font-size="13" fill="#D6EEF2">IMG-1163 | AC Phasors and Impedance | EE-23241</text>
<line class="thin" x1="150" y1="285" x2="462" y2="285"/>
<line class="thin" x1="170" y1="218" x2="170" y2="352"/>
<polyline class="accent" points="170,285 172.812,279.518 175.625,274.13 178.438,268.927 181.25,264 184.062,259.432 186.875,255.302 189.688,251.679 192.5,248.627 195.312,246.197 198.125,244.431 200.938,243.359 203.75,243 206.562,243.359 209.375,244.431 212.188,246.197 215,248.627 217.812,251.679 220.625,255.302 223.438,259.432 226.25,264 229.062,268.927 231.875,274.13 234.688,279.518 237.5,285 240.312,290.482 243.125,295.87 245.938,301.073 248.75,306 251.562,310.568 254.375,314.698 257.188,318.321 260,321.373 262.812,323.803 265.625,325.569 268.438,326.641 271.25,327 274.062,326.641 276.875,325.569 279.688,323.803 282.5,321.373 285.312,318.321 288.125,314.698 290.938,310.568 293.75,306 296.562,301.073 299.375,295.87 302.188,290.482 305,285 307.812,279.518 310.625,274.13 313.438,268.927 316.25,264 319.062,259.432 321.875,255.302 324.688,251.679 327.5,248.627 330.312,246.197 333.125,244.431 335.938,243.359 338.75,243 341.562,243.359 344.375,244.431 347.188,246.197 350,248.627 352.812,251.679 355.625,255.302 358.438,259.432 361.25,264 364.062,268.927 366.875,274.13 369.688,279.518 372.5,285 375.312,290.482 378.125,295.87 380.938,301.073 383.75,306 386.562,310.568 389.375,314.698 392.188,318.321 395,321.373 397.812,323.803 400.625,325.569 403.438,326.641 406.25,327 409.062,326.641 411.875,325.569 414.688,323.803 417.5,321.373 420.312,318.321 423.125,314.698 425.938,310.568 428.75,306 431.562,301.073 434.375,295.87 437.188,290.482 440,285" fill="none"/>
<circle class="thin" cx="635" cy="285" r="54" fill="none"/>
<line class="accent" x1="635" y1="285" x2="682" y2="260" marker-end="url(#arrow)"/>
<line class="thin" x1="635" y1="285" x2="690" y2="285" marker-end="url(#arrow)"/>
<text class="small" x="696" y="263" text-anchor="start">V phasor</text>
<text class="small" x="696" y="291" text-anchor="start">I reference</text>
<text class="small" x="226" y="372" text-anchor="start">sinusoid -&gt; RMS and phase</text>
<text class="math" x="580" y="372" text-anchor="start">Z = R + jX</text>
<rect class="panel" x="24" y="500" width="912" height="74" rx="10"/>
<text x="48" y="528" font-family="Inter,Arial,sans-serif" font-size="15" fill="#1F2933">A voltage is v(t) = 42 V cos(omega t + 30 deg). What is the RMS phasor magnitude?</text>
</svg>
