<?xml version="1.0" encoding="UTF-8"?>
<svg xmlns="http://www.w3.org/2000/svg" width="960" height="600" viewBox="0 0 960 600" role="img" aria-labelledby="title desc">
<!-- LaTeX/TikZ source: latex_sources/IMG-0441.tex -->
<defs>
<marker id="arrow" markerWidth="10" markerHeight="10" refX="7" refY="3" orient="auto" markerUnits="strokeWidth">
<path d="M0,0 L0,6 L8,3 z" fill="#174A5B"/>
</marker>
<style>
.wire{stroke:#174A5B;stroke-width:4;fill:none;stroke-linecap:round;stroke-linejoin:round}
.thin{stroke:#44606B;stroke-width:2.4;fill:none;stroke-linecap:round;stroke-linejoin:round}
.accent{stroke:#D97706;stroke-width:4;fill:none;stroke-linecap:round;stroke-linejoin:round}
.accentFill{fill:#FDECC8;stroke:#D97706;stroke-width:3}
.box{fill:#EAF4F4;stroke:#246B7A;stroke-width:3}
.panel{fill:#FFFFFF;stroke:#D9E2E7;stroke-width:1.5}
.soft{fill:#F1F7F8;stroke:#7AA8B2;stroke-width:2}
.label{font-family:Inter,Arial,sans-serif;font-size:16px;fill:#1F2933}
.small{font-family:Inter,Arial,sans-serif;font-size:13px;fill:#52616B}
.tiny{font-family:Inter,Arial,sans-serif;font-size:11px;fill:#52616B}
.math{font-family:Inter,Arial,sans-serif;font-size:15px;fill:#1F2933}
</style>
</defs>
<title id="title">Ohm&#x27;s law reference diagram</title>
<desc id="desc">A 19.25 V source is applied across a 11 ohm resistor. What current flows?</desc>
<rect x="0" y="0" width="960" height="600" fill="#F8FAFB"/>
<rect x="24" y="22" width="912" height="72" rx="10" fill="#174A5B"/>
<text x="48" y="56" font-family="Inter,Arial,sans-serif" font-size="22" font-weight="700" fill="#FFFFFF">Ohm&#x27;s law reference diagram</text>
<text x="48" y="80" font-family="Inter,Arial,sans-serif" font-size="13" fill="#D6EEF2">IMG-0441 | DC Circuit Analysis | EE-08801</text>
<line class="wire" x1="205" y1="320" x2="205" y2="388"/>
<line class="wire" x1="230" y1="334" x2="230" y2="374"/>
<text class="small" x="188" y="312" text-anchor="start">+</text>
<text class="small" x="238" y="392" text-anchor="start">-</text>
<path class="wire" d="M230,354 H315" fill="none"/>
<polyline class="wire" points="315,354 337,354 337,354 351.667,336 366.333,372 381,336 395.667,372 410.333,336 425,372 439.667,336 454.333,372 469,336 483.667,372 498.333,336 513,354 535,354" fill="none"/>
<path class="wire" d="M535,354 H700 V430 H205 V388" fill="none"/>
<text class="label" x="404" y="328" text-anchor="start">R</text>
<text class="label" x="166" y="364" text-anchor="start">Vs</text>
<text class="small" x="382" y="466" text-anchor="start">Ohm and Kirchhoff relationships</text>
<rect class="panel" x="24" y="500" width="912" height="74" rx="10"/>
<text x="48" y="528" font-family="Inter,Arial,sans-serif" font-size="15" fill="#1F2933">A 19.25 V source is applied across a 11 ohm resistor. What current flows?</text>
</svg>
