<?xml version="1.0" encoding="UTF-8"?>
<svg xmlns="http://www.w3.org/2000/svg" width="960" height="600" viewBox="0 0 960 600" role="img" aria-labelledby="title desc">
<!-- LaTeX/TikZ source: latex_sources/IMG-11686.tex -->
<defs>
<marker id="arrow" markerWidth="10" markerHeight="10" refX="7" refY="3" orient="auto" markerUnits="strokeWidth">
<path d="M0,0 L0,6 L8,3 z" fill="#174A5B"/>
</marker>
<style>
.wire{stroke:#174A5B;stroke-width:4;fill:none;stroke-linecap:round;stroke-linejoin:round}
.thin{stroke:#44606B;stroke-width:2.4;fill:none;stroke-linecap:round;stroke-linejoin:round}
.accent{stroke:#D97706;stroke-width:4;fill:none;stroke-linecap:round;stroke-linejoin:round}
.accentFill{fill:#FDECC8;stroke:#D97706;stroke-width:3}
.box{fill:#EAF4F4;stroke:#246B7A;stroke-width:3}
.panel{fill:#FFFFFF;stroke:#D9E2E7;stroke-width:1.5}
.soft{fill:#F1F7F8;stroke:#7AA8B2;stroke-width:2}
.label{font-family:Inter,Arial,sans-serif;font-size:16px;fill:#1F2933}
.small{font-family:Inter,Arial,sans-serif;font-size:13px;fill:#52616B}
.tiny{font-family:Inter,Arial,sans-serif;font-size:11px;fill:#52616B}
.math{font-family:Inter,Arial,sans-serif;font-size:15px;fill:#1F2933}
</style>
</defs>
<title id="title">Free-space wavelength reference diagram</title>
<desc id="desc">What is the approximate free-space wavelength at 750 MHz?</desc>
<rect x="0" y="0" width="960" height="600" fill="#F8FAFB"/>
<rect x="24" y="22" width="912" height="72" rx="10" fill="#174A5B"/>
<text x="48" y="56" font-family="Inter,Arial,sans-serif" font-size="22" font-weight="700" fill="#FFFFFF">Free-space wavelength reference diagram</text>
<text x="48" y="80" font-family="Inter,Arial,sans-serif" font-size="13" fill="#D6EEF2">IMG-11686 | RF and Antennas | EE-233701</text>
<line class="wire" x1="180" y1="330" x2="350" y2="330"/>
<circle class="thin" cx="370" cy="330" r="18" fill="none"/>
<path class="wire" d="M388,330 H465" fill="none"/>
<polyline class="wire" points="465,330 487,330 487,330 493.333,319 499.667,341 506,319 512.333,341 518.667,319 525,341 531.333,319 537.667,341 544,319 550.333,341 556.667,319 563,330 585,330" fill="none"/>
<path class="wire" d="M585,330 H690" fill="none"/>
<path class="wire" d="M690,330 L720,250 M690,330 L720,410" fill="none"/>
<path class="thin" d="M700,285 C760,240 820,230 870,245" fill="none"/>
<path class="thin" d="M700,375 C760,420 820,430 870,415" fill="none"/>
<text class="small" x="452" y="306" text-anchor="start">matching</text>
<text class="small" x="712" y="238" text-anchor="start">antenna</text>
<text class="small" x="310" y="455" text-anchor="start">Impedance match controls power transfer</text>
<rect class="panel" x="24" y="500" width="912" height="74" rx="10"/>
<text x="48" y="528" font-family="Inter,Arial,sans-serif" font-size="15" fill="#1F2933">What is the approximate free-space wavelength at 750 MHz?</text>
</svg>
