<?xml version="1.0" encoding="UTF-8"?>
<svg xmlns="http://www.w3.org/2000/svg" width="960" height="600" viewBox="0 0 960 600" role="img" aria-labelledby="title desc">
<!-- LaTeX/TikZ source: latex_sources/IMG-5461.tex -->
<defs>
<marker id="arrow" markerWidth="10" markerHeight="10" refX="7" refY="3" orient="auto" markerUnits="strokeWidth">
<path d="M0,0 L0,6 L8,3 z" fill="#174A5B"/>
</marker>
<style>
.wire{stroke:#174A5B;stroke-width:4;fill:none;stroke-linecap:round;stroke-linejoin:round}
.thin{stroke:#44606B;stroke-width:2.4;fill:none;stroke-linecap:round;stroke-linejoin:round}
.accent{stroke:#D97706;stroke-width:4;fill:none;stroke-linecap:round;stroke-linejoin:round}
.accentFill{fill:#FDECC8;stroke:#D97706;stroke-width:3}
.box{fill:#EAF4F4;stroke:#246B7A;stroke-width:3}
.panel{fill:#FFFFFF;stroke:#D9E2E7;stroke-width:1.5}
.soft{fill:#F1F7F8;stroke:#7AA8B2;stroke-width:2}
.label{font-family:Inter,Arial,sans-serif;font-size:16px;fill:#1F2933}
.small{font-family:Inter,Arial,sans-serif;font-size:13px;fill:#52616B}
.tiny{font-family:Inter,Arial,sans-serif;font-size:11px;fill:#52616B}
.math{font-family:Inter,Arial,sans-serif;font-size:15px;fill:#1F2933}
</style>
</defs>
<title id="title">Buck converter output reference diagram</title>
<desc id="desc">An ideal buck converter has Vin = 12 V and duty cycle D = 0.4. What is the output voltage?</desc>
<rect x="0" y="0" width="960" height="600" fill="#F8FAFB"/>
<rect x="24" y="22" width="912" height="72" rx="10" fill="#174A5B"/>
<text x="48" y="56" font-family="Inter,Arial,sans-serif" font-size="22" font-weight="700" fill="#FFFFFF">Buck converter output reference diagram</text>
<text x="48" y="80" font-family="Inter,Arial,sans-serif" font-size="13" fill="#D6EEF2">IMG-5461 | Power Electronics | EE-109201</text>
<rect class="box" x="110" y="260" width="80" height="72" rx="8"/>
<text class="label" x="138" y="301" text-anchor="start">Vin</text>
<line class="wire" x1="190" y1="296" x2="278" y2="296"/>
<rect class="soft" x="278" y="252" width="72" height="88" rx="8"/>
<text class="small" x="299" y="302" text-anchor="start">SW</text>
<polyline class="wire" points="350,296 372,296 372,296 382.917,283 393.833,309 404.75,283 415.667,309 426.583,283 437.5,309 448.417,283 459.333,309 470.25,283 481.167,309 492.083,283 503,296 525,296" fill="none"/>
<line class="wire" x1="525" y1="296" x2="610" y2="296"/>
<line class="wire" x1="610" y1="262" x2="610" y2="330"/>
<line class="wire" x1="630" y1="262" x2="630" y2="330"/>
<line class="wire" x1="630" y1="296" x2="725" y2="296"/>
<text class="label" x="425" y="262" text-anchor="start">L</text>
<text class="label" x="640" y="304" text-anchor="start">C</text>
<text class="label" x="735" y="302" text-anchor="start">Vout</text>
<text class="small" x="302" y="388" text-anchor="start">Duty cycle controls average output</text>
<rect class="panel" x="24" y="500" width="912" height="74" rx="10"/>
<text x="48" y="528" font-family="Inter,Arial,sans-serif" font-size="15" fill="#1F2933">An ideal buck converter has Vin = 12 V and duty cycle D = 0.4. What is the output voltage?</text>
</svg>
