<?xml version="1.0" encoding="UTF-8"?>
<svg xmlns="http://www.w3.org/2000/svg" width="960" height="600" viewBox="0 0 960 600" role="img" aria-labelledby="title desc">
<!-- LaTeX/TikZ source: latex_sources/IMG-8671.tex -->
<defs>
<marker id="arrow" markerWidth="10" markerHeight="10" refX="7" refY="3" orient="auto" markerUnits="strokeWidth">
<path d="M0,0 L0,6 L8,3 z" fill="#174A5B"/>
</marker>
<style>
.wire{stroke:#174A5B;stroke-width:4;fill:none;stroke-linecap:round;stroke-linejoin:round}
.thin{stroke:#44606B;stroke-width:2.4;fill:none;stroke-linecap:round;stroke-linejoin:round}
.accent{stroke:#D97706;stroke-width:4;fill:none;stroke-linecap:round;stroke-linejoin:round}
.accentFill{fill:#FDECC8;stroke:#D97706;stroke-width:3}
.box{fill:#EAF4F4;stroke:#246B7A;stroke-width:3}
.panel{fill:#FFFFFF;stroke:#D9E2E7;stroke-width:1.5}
.soft{fill:#F1F7F8;stroke:#7AA8B2;stroke-width:2}
.label{font-family:Inter,Arial,sans-serif;font-size:16px;fill:#1F2933}
.small{font-family:Inter,Arial,sans-serif;font-size:13px;fill:#52616B}
.tiny{font-family:Inter,Arial,sans-serif;font-size:11px;fill:#52616B}
.math{font-family:Inter,Arial,sans-serif;font-size:15px;fill:#1F2933}
</style>
</defs>
<title id="title">Unity-feedback closed-loop gain reference diagram</title>
<desc id="desc">A unity-feedback system has forward gain K = 6. What is the closed-loop DC gain?</desc>
<rect x="0" y="0" width="960" height="600" fill="#F8FAFB"/>
<rect x="24" y="22" width="912" height="72" rx="10" fill="#174A5B"/>
<text x="48" y="56" font-family="Inter,Arial,sans-serif" font-size="22" font-weight="700" fill="#FFFFFF">Unity-feedback closed-loop gain reference diagram</text>
<text x="48" y="80" font-family="Inter,Arial,sans-serif" font-size="13" fill="#D6EEF2">IMG-8671 | Control Systems | EE-173401</text>
<circle class="thin" cx="205" cy="300" r="24" fill="none"/>
<text class="small" x="198" y="306" text-anchor="start">+</text>
<text class="small" x="206" y="328" text-anchor="start">-</text>
<line class="wire" x1="115" y1="300" x2="181" y2="300" marker-end="url(#arrow)"/>
<line class="wire" x1="229" y1="300" x2="345" y2="300" marker-end="url(#arrow)"/>
<rect class="box" x="345" y="252" width="125" height="96" rx="8"/>
<text class="label" x="386" y="306" text-anchor="start">G(s)</text>
<line class="wire" x1="470" y1="300" x2="590" y2="300" marker-end="url(#arrow)"/>
<rect class="soft" x="590" y="252" width="135" height="96" rx="8"/>
<text class="label" x="640" y="306" text-anchor="start">Plant</text>
<line class="wire" x1="725" y1="300" x2="825" y2="300" marker-end="url(#arrow)"/>
<path class="thin" d="M780,300 V430 H205 V324" fill="none" marker-end="url(#arrow)"/>
<rect class="soft" x="430" y="405" width="115" height="50" rx="8"/>
<text class="small" x="469" y="436" text-anchor="start">H(s)</text>
<text class="small" x="330" y="476" text-anchor="start">Closed-loop response and stability</text>
<rect class="panel" x="24" y="500" width="912" height="74" rx="10"/>
<text x="48" y="528" font-family="Inter,Arial,sans-serif" font-size="15" fill="#1F2933">A unity-feedback system has forward gain K = 6. What is the closed-loop DC gain?</text>
</svg>
